<svg xmlns="http://www.w3.org/2000/svg" xmlns:xlink="http://www.w3.org/1999/xlink" width="300" zoomAndPan="magnify" viewBox="0 0 224.87999 149.999998" height="200" preserveAspectRatio="xMidYMid meet" version="1.0"><defs><g/><clipPath id="a901f8b0c5"><path d="M 45 5.660156 L 153.691406 5.660156 L 153.691406 103 L 45 103 Z M 45 5.660156 " clip-rule="nonzero"/></clipPath><clipPath id="ce855b2251"><path d="M 102.714844 102 C 90.503906 97.144531 81.875 85.214844 81.875 71.234375 C 81.875 52.964844 96.652344 38.160156 114.882812 38.160156 C 125.855469 38.160156 135.570312 43.515625 141.589844 51.769531 L 148.453125 51.769531 C 145.28125 46.28125 140.785156 41.644531 135.417969 38.269531 C 135.460938 38.269531 135.484375 38.269531 135.503906 38.292969 L 137.328125 32.105469 L 140.21875 22.351562 L 135.699219 31.453125 L 133.027344 36.855469 C 133.050781 36.855469 133.070312 36.898438 133.070312 36.917969 C 128.074219 34.261719 122.445312 32.671875 116.46875 32.433594 L 115.796875 20.699219 L 114.925781 5.628906 L 114.058594 20.699219 L 113.382812 32.433594 C 107.453125 32.671875 101.890625 34.242188 96.933594 36.855469 L 92.5 32.171875 L 85.527344 24.792969 L 91.132812 33.261719 L 94.457031 38.269531 C 89.523438 41.359375 85.332031 45.519531 82.203125 50.460938 L 76.097656 48.65625 L 66.316406 45.738281 L 75.398438 50.265625 L 80.703125 52.921875 C 77.898438 58.171875 76.269531 64.136719 76.140625 70.472656 L 62.90625 71.277344 L 45.023438 72.367188 L 62.972656 73.042969 L 76.203125 73.542969 C 76.53125 79.226562 78.074219 84.582031 80.59375 89.351562 L 76.097656 93.617188 L 68.730469 100.609375 L 77.183594 94.992188 L 82.007812 91.789062 C 83.808594 94.664062 94.542969 103.199219 102.714844 102 Z M 147.933594 71.234375 C 147.933594 76.132812 146.867188 80.773438 144.976562 84.929688 L 151.191406 84.929688 C 152.800781 80.664062 153.671875 76.046875 153.671875 71.234375 C 153.671875 66.402344 152.800781 61.785156 151.191406 57.539062 L 144.976562 57.539062 C 146.867188 61.71875 147.933594 66.359375 147.933594 71.234375 Z M 147.933594 71.234375 " clip-rule="nonzero"/></clipPath><linearGradient x1="24781.275797" gradientTransform="matrix(0.00708383, 0, 0, -0.00709828, -92.635241, -161.417544)" y1="-39349.273011" x2="31405.667432" gradientUnits="userSpaceOnUse" y2="-22235.339796" id="fcc5df11e4"><stop stop-opacity="1" stop-color="rgb(94.099426%, 37.599182%, 31.399536%)" offset="0"/><stop stop-opacity="1" stop-color="rgb(94.099426%, 37.599182%, 31.399536%)" offset="0.125"/><stop stop-opacity="1" stop-color="rgb(94.099426%, 37.599182%, 31.399536%)" offset="0.1875"/><stop stop-opacity="1" stop-color="rgb(94.099426%, 37.599182%, 31.399536%)" offset="0.203125"/><stop stop-opacity="1" stop-color="rgb(94.110107%, 37.763977%, 31.324768%)" offset="0.210937"/><stop stop-opacity="1" stop-color="rgb(94.139099%, 38.209534%, 31.124878%)" offset="0.214844"/><stop stop-opacity="1" stop-color="rgb(94.15741%, 38.490295%, 30.999756%)" offset="0.21875"/><stop stop-opacity="1" stop-color="rgb(94.17572%, 38.771057%, 30.873108%)" offset="0.222656"/><stop stop-opacity="1" stop-color="rgb(94.194031%, 39.051819%, 30.747986%)" offset="0.226562"/><stop stop-opacity="1" stop-color="rgb(94.212341%, 39.332581%, 30.621338%)" offset="0.230469"/><stop stop-opacity="1" stop-color="rgb(94.230652%, 39.613342%, 30.496216%)" offset="0.234375"/><stop stop-opacity="1" stop-color="rgb(94.248962%, 39.894104%, 30.369568%)" offset="0.238281"/><stop stop-opacity="1" stop-color="rgb(94.267273%, 40.174866%, 30.24292%)" offset="0.242188"/><stop stop-opacity="1" stop-color="rgb(94.285583%, 40.455627%, 30.116272%)" offset="0.246094"/><stop stop-opacity="1" stop-color="rgb(94.303894%, 40.736389%, 29.99115%)" offset="0.25"/><stop stop-opacity="1" stop-color="rgb(94.322205%, 41.017151%, 29.864502%)" offset="0.253906"/><stop stop-opacity="1" stop-color="rgb(94.340515%, 41.299438%, 29.73938%)" offset="0.257812"/><stop stop-opacity="1" stop-color="rgb(94.358826%, 41.5802%, 29.612732%)" offset="0.261719"/><stop stop-opacity="1" stop-color="rgb(94.378662%, 41.860962%, 29.48761%)" offset="0.265625"/><stop stop-opacity="1" stop-color="rgb(94.396973%, 42.141724%, 29.360962%)" offset="0.269531"/><stop stop-opacity="1" stop-color="rgb(94.415283%, 42.422485%, 29.23584%)" offset="0.273438"/><stop stop-opacity="1" stop-color="rgb(94.433594%, 42.703247%, 29.109192%)" offset="0.277344"/><stop stop-opacity="1" stop-color="rgb(94.451904%, 42.984009%, 28.98407%)" offset="0.28125"/><stop stop-opacity="1" stop-color="rgb(94.470215%, 43.264771%, 28.857422%)" offset="0.285156"/><stop stop-opacity="1" stop-color="rgb(94.488525%, 43.545532%, 28.7323%)" offset="0.289062"/><stop stop-opacity="1" stop-color="rgb(94.506836%, 43.826294%, 28.605652%)" offset="0.292969"/><stop stop-opacity="1" stop-color="rgb(94.525146%, 44.107056%, 28.48053%)" offset="0.296875"/><stop stop-opacity="1" stop-color="rgb(94.543457%, 44.387817%, 28.353882%)" offset="0.300781"/><stop stop-opacity="1" stop-color="rgb(94.561768%, 44.668579%, 28.227234%)" offset="0.304688"/><stop stop-opacity="1" stop-color="rgb(94.580078%, 44.949341%, 28.100586%)" offset="0.308594"/><stop stop-opacity="1" stop-color="rgb(94.598389%, 45.230103%, 27.975464%)" offset="0.3125"/><stop stop-opacity="1" stop-color="rgb(94.616699%, 45.510864%, 27.848816%)" offset="0.316406"/><stop stop-opacity="1" stop-color="rgb(94.63501%, 45.791626%, 27.723694%)" offset="0.320312"/><stop stop-opacity="1" stop-color="rgb(94.65332%, 46.072388%, 27.597046%)" offset="0.324219"/><stop stop-opacity="1" stop-color="rgb(94.671631%, 46.353149%, 27.471924%)" offset="0.328125"/><stop stop-opacity="1" stop-color="rgb(94.689941%, 46.633911%, 27.345276%)" offset="0.332031"/><stop stop-opacity="1" stop-color="rgb(94.708252%, 46.916199%, 27.220154%)" offset="0.335938"/><stop stop-opacity="1" stop-color="rgb(94.726562%, 47.19696%, 27.093506%)" offset="0.339844"/><stop stop-opacity="1" stop-color="rgb(94.744873%, 47.477722%, 26.968384%)" offset="0.34375"/><stop stop-opacity="1" stop-color="rgb(94.763184%, 47.758484%, 26.841736%)" offset="0.347656"/><stop stop-opacity="1" stop-color="rgb(94.781494%, 48.039246%, 26.716614%)" offset="0.351562"/><stop stop-opacity="1" stop-color="rgb(94.799805%, 48.320007%, 26.589966%)" offset="0.355469"/><stop stop-opacity="1" stop-color="rgb(94.819641%, 48.600769%, 26.464844%)" offset="0.359375"/><stop stop-opacity="1" stop-color="rgb(94.837952%, 48.881531%, 26.338196%)" offset="0.363281"/><stop stop-opacity="1" stop-color="rgb(94.856262%, 49.162292%, 26.211548%)" offset="0.367187"/><stop stop-opacity="1" stop-color="rgb(94.874573%, 49.443054%, 26.0849%)" offset="0.371094"/><stop stop-opacity="1" stop-color="rgb(94.892883%, 49.723816%, 25.959778%)" offset="0.375"/><stop stop-opacity="1" stop-color="rgb(94.911194%, 50.004578%, 25.83313%)" offset="0.378906"/><stop stop-opacity="1" stop-color="rgb(94.929504%, 50.285339%, 25.708008%)" offset="0.382812"/><stop stop-opacity="1" stop-color="rgb(94.947815%, 50.566101%, 25.58136%)" offset="0.386719"/><stop stop-opacity="1" stop-color="rgb(94.966125%, 50.846863%, 25.456238%)" offset="0.390625"/><stop stop-opacity="1" stop-color="rgb(94.984436%, 51.127625%, 25.32959%)" offset="0.394531"/><stop stop-opacity="1" stop-color="rgb(95.002747%, 51.408386%, 25.204468%)" offset="0.398437"/><stop stop-opacity="1" stop-color="rgb(95.021057%, 51.689148%, 25.07782%)" offset="0.402344"/><stop stop-opacity="1" stop-color="rgb(95.039368%, 51.96991%, 24.952698%)" offset="0.40625"/><stop stop-opacity="1" stop-color="rgb(95.057678%, 52.250671%, 24.82605%)" offset="0.410156"/><stop stop-opacity="1" stop-color="rgb(95.075989%, 52.531433%, 24.700928%)" offset="0.414062"/><stop stop-opacity="1" stop-color="rgb(95.094299%, 52.812195%, 24.57428%)" offset="0.417969"/><stop stop-opacity="1" stop-color="rgb(95.11261%, 53.094482%, 24.447632%)" offset="0.421875"/><stop stop-opacity="1" stop-color="rgb(95.13092%, 53.375244%, 24.320984%)" offset="0.425781"/><stop stop-opacity="1" stop-color="rgb(95.149231%, 53.656006%, 24.195862%)" offset="0.429687"/><stop stop-opacity="1" stop-color="rgb(95.167542%, 53.936768%, 24.069214%)" offset="0.433594"/><stop stop-opacity="1" stop-color="rgb(95.185852%, 54.217529%, 23.944092%)" offset="0.4375"/><stop stop-opacity="1" stop-color="rgb(95.204163%, 54.498291%, 23.817444%)" offset="0.441406"/><stop stop-opacity="1" stop-color="rgb(95.222473%, 54.779053%, 23.692322%)" offset="0.445312"/><stop stop-opacity="1" stop-color="rgb(95.240784%, 55.059814%, 23.565674%)" offset="0.449219"/><stop stop-opacity="1" stop-color="rgb(95.26062%, 55.340576%, 23.440552%)" offset="0.453125"/><stop stop-opacity="1" stop-color="rgb(95.278931%, 55.621338%, 23.313904%)" offset="0.457031"/><stop stop-opacity="1" stop-color="rgb(95.297241%, 55.9021%, 23.188782%)" offset="0.460937"/><stop stop-opacity="1" stop-color="rgb(95.315552%, 56.182861%, 23.062134%)" offset="0.464844"/><stop stop-opacity="1" stop-color="rgb(95.333862%, 56.463623%, 22.937012%)" offset="0.46875"/><stop stop-opacity="1" stop-color="rgb(95.352173%, 56.744385%, 22.810364%)" offset="0.472656"/><stop stop-opacity="1" stop-color="rgb(95.370483%, 57.025146%, 22.685242%)" offset="0.476562"/><stop stop-opacity="1" stop-color="rgb(95.388794%, 57.305908%, 22.558594%)" offset="0.480469"/><stop stop-opacity="1" stop-color="rgb(95.407104%, 57.58667%, 22.431946%)" offset="0.484375"/><stop stop-opacity="1" stop-color="rgb(95.425415%, 57.867432%, 22.305298%)" offset="0.488281"/><stop stop-opacity="1" stop-color="rgb(95.443726%, 58.148193%, 22.180176%)" offset="0.492187"/><stop stop-opacity="1" stop-color="rgb(95.462036%, 58.428955%, 22.053528%)" offset="0.496094"/><stop stop-opacity="1" stop-color="rgb(95.480347%, 58.711243%, 21.928406%)" offset="0.5"/><stop stop-opacity="1" stop-color="rgb(95.498657%, 58.992004%, 21.801758%)" offset="0.503906"/><stop stop-opacity="1" stop-color="rgb(95.516968%, 59.272766%, 21.676636%)" offset="0.507812"/><stop stop-opacity="1" stop-color="rgb(95.535278%, 59.553528%, 21.549988%)" offset="0.511719"/><stop stop-opacity="1" stop-color="rgb(95.553589%, 59.83429%, 21.424866%)" offset="0.515625"/><stop stop-opacity="1" stop-color="rgb(95.571899%, 60.115051%, 21.298218%)" offset="0.519531"/><stop stop-opacity="1" stop-color="rgb(95.59021%, 60.395813%, 21.173096%)" offset="0.523438"/><stop stop-opacity="1" stop-color="rgb(95.608521%, 60.676575%, 21.046448%)" offset="0.527344"/><stop stop-opacity="1" stop-color="rgb(95.626831%, 60.957336%, 20.921326%)" offset="0.53125"/><stop stop-opacity="1" stop-color="rgb(95.645142%, 61.238098%, 20.794678%)" offset="0.535156"/><stop stop-opacity="1" stop-color="rgb(95.663452%, 61.51886%, 20.669556%)" offset="0.539062"/><stop stop-opacity="1" stop-color="rgb(95.681763%, 61.799622%, 20.542908%)" offset="0.542969"/><stop stop-opacity="1" stop-color="rgb(95.700073%, 62.080383%, 20.41626%)" offset="0.546875"/><stop stop-opacity="1" stop-color="rgb(95.718384%, 62.361145%, 20.289612%)" offset="0.550781"/><stop stop-opacity="1" stop-color="rgb(95.73822%, 62.641907%, 20.16449%)" offset="0.554688"/><stop stop-opacity="1" stop-color="rgb(95.756531%, 62.922668%, 20.037842%)" offset="0.558594"/><stop stop-opacity="1" stop-color="rgb(95.774841%, 63.20343%, 19.91272%)" offset="0.5625"/><stop stop-opacity="1" stop-color="rgb(95.793152%, 63.484192%, 19.786072%)" offset="0.566406"/><stop stop-opacity="1" stop-color="rgb(95.811462%, 63.764954%, 19.66095%)" offset="0.570312"/><stop stop-opacity="1" stop-color="rgb(95.829773%, 64.045715%, 19.534302%)" offset="0.574219"/><stop stop-opacity="1" stop-color="rgb(95.848083%, 64.328003%, 19.40918%)" offset="0.578125"/><stop stop-opacity="1" stop-color="rgb(95.866394%, 64.608765%, 19.282532%)" offset="0.582031"/><stop stop-opacity="1" stop-color="rgb(95.884705%, 64.889526%, 19.15741%)" offset="0.585938"/><stop stop-opacity="1" stop-color="rgb(95.903015%, 65.170288%, 19.030762%)" offset="0.589844"/><stop stop-opacity="1" stop-color="rgb(95.921326%, 65.45105%, 18.90564%)" offset="0.59375"/><stop stop-opacity="1" stop-color="rgb(95.939636%, 65.731812%, 18.778992%)" offset="0.597656"/><stop stop-opacity="1" stop-color="rgb(95.957947%, 66.012573%, 18.65387%)" offset="0.601562"/><stop stop-opacity="1" stop-color="rgb(95.976257%, 66.293335%, 18.527222%)" offset="0.605469"/><stop stop-opacity="1" stop-color="rgb(95.994568%, 66.574097%, 18.400574%)" offset="0.609375"/><stop stop-opacity="1" stop-color="rgb(96.012878%, 66.854858%, 18.273926%)" offset="0.613281"/><stop stop-opacity="1" stop-color="rgb(96.031189%, 67.13562%, 18.148804%)" offset="0.617188"/><stop stop-opacity="1" stop-color="rgb(96.0495%, 67.416382%, 18.022156%)" offset="0.621094"/><stop stop-opacity="1" stop-color="rgb(96.06781%, 67.697144%, 17.897034%)" offset="0.625"/><stop stop-opacity="1" stop-color="rgb(96.086121%, 67.977905%, 17.770386%)" offset="0.628906"/><stop stop-opacity="1" stop-color="rgb(96.104431%, 68.258667%, 17.645264%)" offset="0.632812"/><stop stop-opacity="1" stop-color="rgb(96.122742%, 68.539429%, 17.518616%)" offset="0.636719"/><stop stop-opacity="1" stop-color="rgb(96.141052%, 68.82019%, 17.393494%)" offset="0.640625"/><stop stop-opacity="1" stop-color="rgb(96.159363%, 69.100952%, 17.266846%)" offset="0.644531"/><stop stop-opacity="1" stop-color="rgb(96.179199%, 69.381714%, 17.141724%)" offset="0.648438"/><stop stop-opacity="1" stop-color="rgb(96.19751%, 69.662476%, 17.015076%)" offset="0.652344"/><stop stop-opacity="1" stop-color="rgb(96.21582%, 69.943237%, 16.889954%)" offset="0.65625"/><stop stop-opacity="1" stop-color="rgb(96.234131%, 70.223999%, 16.763306%)" offset="0.660156"/><stop stop-opacity="1" stop-color="rgb(96.252441%, 70.506287%, 16.638184%)" offset="0.664062"/><stop stop-opacity="1" stop-color="rgb(96.270752%, 70.787048%, 16.511536%)" offset="0.667969"/><stop stop-opacity="1" stop-color="rgb(96.289062%, 71.06781%, 16.384888%)" offset="0.671875"/><stop stop-opacity="1" stop-color="rgb(96.307373%, 71.348572%, 16.25824%)" offset="0.675781"/><stop stop-opacity="1" stop-color="rgb(96.325684%, 71.629333%, 16.133118%)" offset="0.679688"/><stop stop-opacity="1" stop-color="rgb(96.343994%, 71.910095%, 16.00647%)" offset="0.683594"/><stop stop-opacity="1" stop-color="rgb(96.362305%, 72.190857%, 15.881348%)" offset="0.6875"/><stop stop-opacity="1" stop-color="rgb(96.380615%, 72.471619%, 15.7547%)" offset="0.691406"/><stop stop-opacity="1" stop-color="rgb(96.398926%, 72.75238%, 15.629578%)" offset="0.695312"/><stop stop-opacity="1" stop-color="rgb(96.417236%, 73.033142%, 15.50293%)" offset="0.699219"/><stop stop-opacity="1" stop-color="rgb(96.435547%, 73.313904%, 15.377808%)" offset="0.703125"/><stop stop-opacity="1" stop-color="rgb(96.453857%, 73.594666%, 15.25116%)" offset="0.707031"/><stop stop-opacity="1" stop-color="rgb(96.472168%, 73.875427%, 15.126038%)" offset="0.710937"/><stop stop-opacity="1" stop-color="rgb(96.490479%, 74.156189%, 14.99939%)" offset="0.714844"/><stop stop-opacity="1" stop-color="rgb(96.508789%, 74.436951%, 14.874268%)" offset="0.71875"/><stop stop-opacity="1" stop-color="rgb(96.5271%, 74.717712%, 14.74762%)" offset="0.722656"/><stop stop-opacity="1" stop-color="rgb(96.54541%, 74.998474%, 14.622498%)" offset="0.726562"/><stop stop-opacity="1" stop-color="rgb(96.563721%, 75.279236%, 14.49585%)" offset="0.730469"/><stop stop-opacity="1" stop-color="rgb(96.582031%, 75.559998%, 14.369202%)" offset="0.734375"/><stop stop-opacity="1" stop-color="rgb(96.600342%, 75.840759%, 14.242554%)" offset="0.738281"/><stop stop-opacity="1" stop-color="rgb(96.620178%, 76.123047%, 14.117432%)" offset="0.742187"/><stop stop-opacity="1" stop-color="rgb(96.638489%, 76.403809%, 13.990784%)" offset="0.746094"/><stop stop-opacity="1" stop-color="rgb(96.656799%, 76.68457%, 13.865662%)" offset="0.75"/><stop stop-opacity="1" stop-color="rgb(96.67511%, 76.965332%, 13.739014%)" offset="0.753906"/><stop stop-opacity="1" stop-color="rgb(96.69342%, 77.246094%, 13.613892%)" offset="0.757812"/><stop stop-opacity="1" stop-color="rgb(96.711731%, 77.526855%, 13.487244%)" offset="0.761719"/><stop stop-opacity="1" stop-color="rgb(96.730042%, 77.807617%, 13.362122%)" offset="0.765625"/><stop stop-opacity="1" stop-color="rgb(96.748352%, 78.088379%, 13.235474%)" offset="0.769531"/><stop stop-opacity="1" stop-color="rgb(96.766663%, 78.369141%, 13.110352%)" offset="0.773437"/><stop stop-opacity="1" stop-color="rgb(96.784973%, 78.649902%, 12.983704%)" offset="0.777344"/><stop stop-opacity="1" stop-color="rgb(96.803284%, 78.930664%, 12.858582%)" offset="0.78125"/><stop stop-opacity="1" stop-color="rgb(96.821594%, 79.211426%, 12.731934%)" offset="0.785156"/><stop stop-opacity="1" stop-color="rgb(96.839905%, 79.492188%, 12.605286%)" offset="0.789062"/><stop stop-opacity="1" stop-color="rgb(96.858215%, 79.772949%, 12.478638%)" offset="0.792969"/><stop stop-opacity="1" stop-color="rgb(96.876526%, 80.053711%, 12.353516%)" offset="0.796875"/><stop stop-opacity="1" stop-color="rgb(96.887207%, 80.226135%, 12.275696%)" offset="0.8125"/><stop stop-opacity="1" stop-color="rgb(96.899414%, 80.39856%, 12.199402%)" offset="0.875"/><stop stop-opacity="1" stop-color="rgb(96.899414%, 80.39856%, 12.199402%)" offset="1"/></linearGradient><clipPath id="4b57c4445e"><path d="M 87 90 L 150 90 L 150 112.824219 L 87 112.824219 Z M 87 90 " clip-rule="nonzero"/></clipPath></defs><g fill="#000f52" fill-opacity="1"><g transform="translate(66.57988, 137.113721)"><g><path d="M 3.4375 0 L 3.4375 -1.703125 L 4.84375 -1.703125 L 4.84375 -9.953125 L 2.375 -9.953125 L 2.375 -7.421875 L 0.515625 -7.421875 L 0.515625 -11.625 L 11.90625 -11.625 L 11.90625 -7.421875 L 10.0625 -7.421875 L 10.0625 -9.953125 L 7.625 -9.953125 L 7.625 -1.703125 L 9.046875 -1.703125 L 9.046875 0 Z M 3.4375 0 "/></g></g></g><g fill="#000f52" fill-opacity="1"><g transform="translate(79.024665, 137.113721)"><g><path d="M 0.890625 0 L 0.890625 -1.703125 L 2.21875 -1.703125 L 2.21875 -10.015625 L 0.890625 -10.015625 L 0.890625 -11.625 L 6.328125 -11.625 L 6.328125 -10.015625 L 5 -10.015625 L 5 -1.703125 L 8.78125 -1.703125 L 8.78125 -4.953125 L 10.734375 -4.953125 L 10.734375 0 Z M 0.890625 0 "/></g></g></g><g fill="#000f52" fill-opacity="1"><g transform="translate(90.249378, 137.113721)"><g><path d="M 1.0625 -4 L 1.0625 -5.59375 L 6.46875 -5.59375 L 6.46875 -4 Z M 1.0625 -4 "/></g></g></g><g fill="#000f52" fill-opacity="1"><g transform="translate(97.773187, 137.113721)"><g><path d="M 0.890625 0 L 0.890625 -1.703125 L 2.21875 -1.703125 L 2.21875 -10.015625 L 0.890625 -10.015625 L 0.890625 -11.625 L 6.328125 -11.625 L 6.328125 -10.015625 L 5 -10.015625 L 5 -1.703125 L 8.78125 -1.703125 L 8.78125 -4.953125 L 10.734375 -4.953125 L 10.734375 0 Z M 0.890625 0 "/></g></g></g><g fill="#000f52" fill-opacity="1"><g transform="translate(108.9979, 137.113721)"><g><path d="M 1.015625 0 L 1.015625 -1.703125 L 2.34375 -1.703125 L 2.34375 -9.921875 L 1.015625 -9.921875 L 1.015625 -11.625 L 6.46875 -11.625 L 6.46875 -9.921875 L 5.125 -9.921875 L 5.125 -1.703125 L 6.46875 -1.703125 L 6.46875 0 Z M 1.015625 0 "/></g></g></g><g fill="#000f52" fill-opacity="1"><g transform="translate(116.481045, 137.113721)"><g><path d="M 13.5 -6.1875 L 13.5 -5.421875 C 13.5 -3.617188 12.945312 -2.226562 11.84375 -1.25 C 10.738281 -0.28125 9.25 0.203125 7.375 0.203125 C 6.0625 0.203125 4.90625 -0.046875 3.90625 -0.546875 C 2.914062 -1.046875 2.148438 -1.753906 1.609375 -2.671875 C 1.078125 -3.585938 0.8125 -4.632812 0.8125 -5.8125 C 0.8125 -6.988281 1.078125 -8.035156 1.609375 -8.953125 C 2.140625 -9.867188 2.878906 -10.578125 3.828125 -11.078125 C 4.785156 -11.578125 5.878906 -11.828125 7.109375 -11.828125 C 7.984375 -11.828125 8.75 -11.691406 9.40625 -11.421875 C 10.0625 -11.160156 10.597656 -10.789062 11.015625 -10.3125 L 11.015625 -11.625 L 12.96875 -11.625 L 12.96875 -7.6875 L 11.28125 -7.6875 C 10.5625 -9.164062 9.351562 -9.90625 7.65625 -9.90625 C 6.46875 -9.90625 5.519531 -9.546875 4.8125 -8.828125 C 4.113281 -8.109375 3.765625 -7.125 3.765625 -5.875 C 3.765625 -4.601562 4.101562 -3.597656 4.78125 -2.859375 C 5.457031 -2.117188 6.363281 -1.75 7.5 -1.75 C 8.4375 -1.757812 9.203125 -1.984375 9.796875 -2.421875 C 10.390625 -2.867188 10.722656 -3.539062 10.796875 -4.4375 L 8.625 -4.4375 L 8.625 -6.1875 Z M 13.5 -6.1875 "/></g></g></g><g fill="#000f52" fill-opacity="1"><g transform="translate(131.020301, 137.113721)"><g><path d="M 0.890625 0 L 0.890625 -1.703125 L 2.21875 -1.703125 L 2.21875 -9.921875 L 0.890625 -9.921875 L 0.890625 -11.625 L 6.328125 -11.625 L 6.328125 -9.921875 L 5 -9.921875 L 5 -6.765625 L 9.8125 -6.765625 L 9.8125 -9.921875 L 8.5 -9.921875 L 8.5 -11.625 L 13.921875 -11.625 L 13.921875 -9.921875 L 12.609375 -9.921875 L 12.609375 -1.703125 L 13.921875 -1.703125 L 13.921875 0 L 8.5 0 L 8.5 -1.703125 L 9.8125 -1.703125 L 9.8125 -5.109375 L 5 -5.109375 L 5 -1.703125 L 6.328125 -1.703125 L 6.328125 0 Z M 0.890625 0 "/></g></g></g><g fill="#000f52" fill-opacity="1"><g transform="translate(145.844244, 137.113721)"><g><path d="M 3.4375 0 L 3.4375 -1.703125 L 4.84375 -1.703125 L 4.84375 -9.953125 L 2.375 -9.953125 L 2.375 -7.421875 L 0.515625 -7.421875 L 0.515625 -11.625 L 11.90625 -11.625 L 11.90625 -7.421875 L 10.0625 -7.421875 L 10.0625 -9.953125 L 7.625 -9.953125 L 7.625 -1.703125 L 9.046875 -1.703125 L 9.046875 0 Z M 3.4375 0 "/></g></g></g><g clip-path="url(#a901f8b0c5)"><g clip-path="url(#ce855b2251)"><path fill="url(#fcc5df11e4)" d="M 45.023438 103.199219 L 45.023438 5.660156 L 153.671875 5.660156 L 153.671875 103.199219 Z M 45.023438 103.199219 " fill-rule="nonzero"/></g></g><g clip-path="url(#4b57c4445e)"><path fill="#000f52" d="M 87.4375 99.257812 C 89.828125 101.695312 92.652344 103.570312 95.738281 104.765625 L 92.980469 104.765625 C 90.980469 103.15625 89.113281 101.328125 87.4375 99.257812 Z M 132.289062 90.832031 L 124.855469 98.277344 L 122.269531 98.277344 C 124.140625 96.121094 125.640625 93.617188 126.636719 90.875 Z M 142.023438 90.765625 L 134.527344 98.277344 L 126.488281 98.277344 L 133.917969 90.808594 Z M 144.675781 98.277344 L 136.15625 98.277344 L 143.675781 90.746094 L 149.085938 90.699219 C 147.890625 93.421875 146.414062 95.96875 144.675781 98.277344 Z M 128.507812 105.941406 L 136.828125 105.941406 C 132.570312 109.011719 127.636719 111.148438 122.335938 112.125 Z M 129.660156 104.789062 L 135.003906 99.433594 L 143.785156 99.433594 C 142.152344 101.414062 140.351562 103.199219 138.371094 104.789062 Z M 119.988281 104.789062 L 125.335938 99.433594 L 133.375 99.433594 L 128.03125 104.789062 Z M 118.359375 104.789062 L 113.035156 104.789062 C 116.101562 103.589844 118.882812 101.738281 121.183594 99.433594 L 123.707031 99.433594 Z M 112.210938 112.582031 L 118.835938 105.941406 L 126.878906 105.941406 L 120.402344 112.429688 C 117.644531 112.78125 114.90625 112.824219 112.210938 112.582031 Z M 102.085938 110.101562 L 105.800781 106.378906 C 106.90625 106.3125 108.039062 106.160156 109.144531 105.941406 L 117.207031 105.941406 L 110.753906 112.410156 C 107.777344 111.996094 104.867188 111.210938 102.085938 110.101562 Z M 94.523438 105.941406 L 99.652344 105.941406 C 101.128906 106.246094 102.605469 106.398438 104.125 106.421875 L 100.933594 109.621094 C 98.695312 108.597656 96.542969 107.378906 94.523438 105.941406 Z M 94.523438 105.941406 " fill-opacity="1" fill-rule="nonzero"/></g></svg>