<svg xmlns="http://www.w3.org/2000/svg" xmlns:xlink="http://www.w3.org/1999/xlink" width="300" zoomAndPan="magnify" viewBox="0 0 224.87999 135.000003" height="180" preserveAspectRatio="xMidYMid meet" version="1.0"><defs><g/><clipPath id="ca3650be07"><path d="M 0.765625 26.058594 L 64.046875 26.058594 L 64.046875 83 L 0.765625 83 Z M 0.765625 26.058594 " clip-rule="nonzero"/></clipPath><clipPath id="6eee3d28ad"><path d="M 34.367188 82.265625 C 27.257812 79.433594 22.234375 72.472656 22.234375 64.316406 C 22.234375 53.660156 30.839844 45.019531 41.453125 45.019531 C 47.84375 45.019531 53.496094 48.144531 57 52.960938 L 61 52.960938 C 59.152344 49.757812 56.535156 47.054688 53.410156 45.085938 C 53.433594 45.085938 53.445312 45.085938 53.460938 45.097656 L 54.523438 41.488281 L 56.203125 35.800781 L 53.574219 41.109375 L 52.015625 44.257812 C 52.03125 44.257812 52.042969 44.285156 52.042969 44.296875 C 49.132812 42.746094 45.855469 41.820312 42.378906 41.679688 L 41.984375 34.832031 L 41.480469 26.042969 L 40.972656 34.832031 L 40.582031 41.679688 C 37.125 41.820312 33.886719 42.734375 31.003906 44.257812 L 28.421875 41.527344 L 24.363281 37.222656 L 27.625 42.164062 L 29.5625 45.085938 C 26.691406 46.886719 24.246094 49.316406 22.425781 52.199219 L 18.871094 51.144531 L 13.179688 49.441406 L 18.464844 52.085938 L 21.554688 53.632812 C 19.921875 56.695312 18.972656 60.175781 18.894531 63.871094 L 11.191406 64.34375 L 0.78125 64.976562 L 11.230469 65.371094 L 18.933594 65.664062 C 19.125 68.980469 20.023438 72.105469 21.488281 74.886719 L 18.871094 77.375 L 14.582031 81.453125 L 19.503906 78.175781 L 22.3125 76.308594 C 23.363281 77.984375 29.613281 82.964844 34.367188 82.265625 Z M 60.695312 64.316406 C 60.695312 67.175781 60.074219 69.882812 58.976562 72.308594 L 62.59375 72.308594 C 63.53125 69.816406 64.035156 67.125 64.035156 64.316406 C 64.035156 61.496094 63.53125 58.804688 62.59375 56.328125 L 58.976562 56.328125 C 60.074219 58.765625 60.695312 61.472656 60.695312 64.316406 Z M 60.695312 64.316406 " clip-rule="nonzero"/></clipPath><linearGradient x1="24781.276867" gradientTransform="matrix(0.00412431, 0, 0, -0.00414117, -79.366667, -71.413552)" y1="-39349.270247" x2="31405.672079" gradientUnits="userSpaceOnUse" y2="-22235.327791" id="7ef820b0f3"><stop stop-opacity="1" stop-color="rgb(94.099426%, 37.599182%, 31.399536%)" offset="0"/><stop stop-opacity="1" stop-color="rgb(94.099426%, 37.599182%, 31.399536%)" offset="0.125"/><stop stop-opacity="1" stop-color="rgb(94.099426%, 37.599182%, 31.399536%)" offset="0.1875"/><stop stop-opacity="1" stop-color="rgb(94.099426%, 37.599182%, 31.399536%)" offset="0.203125"/><stop stop-opacity="1" stop-color="rgb(94.110107%, 37.763977%, 31.324768%)" offset="0.210938"/><stop stop-opacity="1" stop-color="rgb(94.139099%, 38.209534%, 31.124878%)" offset="0.214844"/><stop stop-opacity="1" stop-color="rgb(94.15741%, 38.490295%, 30.999756%)" offset="0.21875"/><stop stop-opacity="1" stop-color="rgb(94.17572%, 38.771057%, 30.873108%)" offset="0.222656"/><stop stop-opacity="1" stop-color="rgb(94.194031%, 39.051819%, 30.747986%)" offset="0.226563"/><stop stop-opacity="1" stop-color="rgb(94.212341%, 39.332581%, 30.621338%)" offset="0.230469"/><stop stop-opacity="1" stop-color="rgb(94.230652%, 39.613342%, 30.496216%)" offset="0.234375"/><stop stop-opacity="1" stop-color="rgb(94.248962%, 39.894104%, 30.369568%)" offset="0.238281"/><stop stop-opacity="1" stop-color="rgb(94.267273%, 40.174866%, 30.24292%)" offset="0.242188"/><stop stop-opacity="1" stop-color="rgb(94.285583%, 40.455627%, 30.116272%)" offset="0.246094"/><stop stop-opacity="1" stop-color="rgb(94.303894%, 40.736389%, 29.99115%)" offset="0.25"/><stop stop-opacity="1" stop-color="rgb(94.322205%, 41.017151%, 29.864502%)" offset="0.253906"/><stop stop-opacity="1" stop-color="rgb(94.340515%, 41.299438%, 29.73938%)" offset="0.257813"/><stop stop-opacity="1" stop-color="rgb(94.358826%, 41.5802%, 29.612732%)" offset="0.261719"/><stop stop-opacity="1" stop-color="rgb(94.378662%, 41.860962%, 29.48761%)" offset="0.265625"/><stop stop-opacity="1" stop-color="rgb(94.396973%, 42.141724%, 29.360962%)" offset="0.269531"/><stop stop-opacity="1" stop-color="rgb(94.415283%, 42.422485%, 29.23584%)" offset="0.273438"/><stop stop-opacity="1" stop-color="rgb(94.433594%, 42.703247%, 29.109192%)" offset="0.277344"/><stop stop-opacity="1" stop-color="rgb(94.451904%, 42.984009%, 28.98407%)" offset="0.28125"/><stop stop-opacity="1" stop-color="rgb(94.470215%, 43.264771%, 28.857422%)" offset="0.285156"/><stop stop-opacity="1" stop-color="rgb(94.488525%, 43.545532%, 28.7323%)" offset="0.289062"/><stop stop-opacity="1" stop-color="rgb(94.506836%, 43.826294%, 28.605652%)" offset="0.292969"/><stop stop-opacity="1" stop-color="rgb(94.525146%, 44.107056%, 28.48053%)" offset="0.296875"/><stop stop-opacity="1" stop-color="rgb(94.543457%, 44.387817%, 28.353882%)" offset="0.300781"/><stop stop-opacity="1" stop-color="rgb(94.561768%, 44.668579%, 28.227234%)" offset="0.304688"/><stop stop-opacity="1" stop-color="rgb(94.580078%, 44.949341%, 28.100586%)" offset="0.308594"/><stop stop-opacity="1" stop-color="rgb(94.598389%, 45.230103%, 27.975464%)" offset="0.3125"/><stop stop-opacity="1" stop-color="rgb(94.616699%, 45.510864%, 27.848816%)" offset="0.316406"/><stop stop-opacity="1" stop-color="rgb(94.63501%, 45.791626%, 27.723694%)" offset="0.320313"/><stop stop-opacity="1" stop-color="rgb(94.65332%, 46.072388%, 27.597046%)" offset="0.324219"/><stop stop-opacity="1" stop-color="rgb(94.671631%, 46.353149%, 27.471924%)" offset="0.328125"/><stop stop-opacity="1" stop-color="rgb(94.689941%, 46.633911%, 27.345276%)" offset="0.332031"/><stop stop-opacity="1" stop-color="rgb(94.708252%, 46.916199%, 27.220154%)" offset="0.335938"/><stop stop-opacity="1" stop-color="rgb(94.726562%, 47.19696%, 27.093506%)" offset="0.339844"/><stop stop-opacity="1" stop-color="rgb(94.744873%, 47.477722%, 26.968384%)" offset="0.34375"/><stop stop-opacity="1" stop-color="rgb(94.763184%, 47.758484%, 26.841736%)" offset="0.347656"/><stop stop-opacity="1" stop-color="rgb(94.781494%, 48.039246%, 26.716614%)" offset="0.351562"/><stop stop-opacity="1" stop-color="rgb(94.799805%, 48.320007%, 26.589966%)" offset="0.355469"/><stop stop-opacity="1" stop-color="rgb(94.819641%, 48.600769%, 26.464844%)" offset="0.359375"/><stop stop-opacity="1" stop-color="rgb(94.837952%, 48.881531%, 26.338196%)" offset="0.363281"/><stop stop-opacity="1" stop-color="rgb(94.856262%, 49.162292%, 26.211548%)" offset="0.367188"/><stop stop-opacity="1" stop-color="rgb(94.874573%, 49.443054%, 26.0849%)" offset="0.371094"/><stop stop-opacity="1" stop-color="rgb(94.892883%, 49.723816%, 25.959778%)" offset="0.375"/><stop stop-opacity="1" stop-color="rgb(94.911194%, 50.004578%, 25.83313%)" offset="0.378906"/><stop stop-opacity="1" stop-color="rgb(94.929504%, 50.285339%, 25.708008%)" offset="0.382812"/><stop stop-opacity="1" stop-color="rgb(94.947815%, 50.566101%, 25.58136%)" offset="0.386719"/><stop stop-opacity="1" stop-color="rgb(94.966125%, 50.846863%, 25.456238%)" offset="0.390625"/><stop stop-opacity="1" stop-color="rgb(94.984436%, 51.127625%, 25.32959%)" offset="0.394531"/><stop stop-opacity="1" stop-color="rgb(95.002747%, 51.408386%, 25.204468%)" offset="0.398437"/><stop stop-opacity="1" stop-color="rgb(95.021057%, 51.689148%, 25.07782%)" offset="0.402344"/><stop stop-opacity="1" stop-color="rgb(95.039368%, 51.96991%, 24.952698%)" offset="0.40625"/><stop stop-opacity="1" stop-color="rgb(95.057678%, 52.250671%, 24.82605%)" offset="0.410156"/><stop stop-opacity="1" stop-color="rgb(95.075989%, 52.532959%, 24.700928%)" offset="0.414062"/><stop stop-opacity="1" stop-color="rgb(95.094299%, 52.813721%, 24.57428%)" offset="0.417969"/><stop stop-opacity="1" stop-color="rgb(95.11261%, 53.094482%, 24.447632%)" offset="0.421875"/><stop stop-opacity="1" stop-color="rgb(95.13092%, 53.375244%, 24.320984%)" offset="0.425781"/><stop stop-opacity="1" stop-color="rgb(95.149231%, 53.656006%, 24.195862%)" offset="0.429687"/><stop stop-opacity="1" stop-color="rgb(95.167542%, 53.936768%, 24.069214%)" offset="0.433594"/><stop stop-opacity="1" stop-color="rgb(95.185852%, 54.217529%, 23.944092%)" offset="0.4375"/><stop stop-opacity="1" stop-color="rgb(95.204163%, 54.498291%, 23.817444%)" offset="0.441406"/><stop stop-opacity="1" stop-color="rgb(95.222473%, 54.779053%, 23.692322%)" offset="0.445312"/><stop stop-opacity="1" stop-color="rgb(95.240784%, 55.059814%, 23.565674%)" offset="0.449219"/><stop stop-opacity="1" stop-color="rgb(95.26062%, 55.340576%, 23.440552%)" offset="0.453125"/><stop stop-opacity="1" stop-color="rgb(95.278931%, 55.621338%, 23.313904%)" offset="0.457031"/><stop stop-opacity="1" stop-color="rgb(95.297241%, 55.9021%, 23.188782%)" offset="0.460938"/><stop stop-opacity="1" stop-color="rgb(95.315552%, 56.182861%, 23.062134%)" offset="0.464844"/><stop stop-opacity="1" stop-color="rgb(95.333862%, 56.463623%, 22.937012%)" offset="0.46875"/><stop stop-opacity="1" stop-color="rgb(95.352173%, 56.744385%, 22.810364%)" offset="0.472656"/><stop stop-opacity="1" stop-color="rgb(95.370483%, 57.025146%, 22.685242%)" offset="0.476562"/><stop stop-opacity="1" stop-color="rgb(95.388794%, 57.305908%, 22.558594%)" offset="0.480469"/><stop stop-opacity="1" stop-color="rgb(95.407104%, 57.58667%, 22.431946%)" offset="0.484375"/><stop stop-opacity="1" stop-color="rgb(95.425415%, 57.867432%, 22.305298%)" offset="0.488281"/><stop stop-opacity="1" stop-color="rgb(95.443726%, 58.148193%, 22.180176%)" offset="0.492188"/><stop stop-opacity="1" stop-color="rgb(95.462036%, 58.428955%, 22.053528%)" offset="0.496094"/><stop stop-opacity="1" stop-color="rgb(95.480347%, 58.711243%, 21.928406%)" offset="0.5"/><stop stop-opacity="1" stop-color="rgb(95.498657%, 58.992004%, 21.801758%)" offset="0.503906"/><stop stop-opacity="1" stop-color="rgb(95.516968%, 59.272766%, 21.676636%)" offset="0.507812"/><stop stop-opacity="1" stop-color="rgb(95.535278%, 59.553528%, 21.549988%)" offset="0.511719"/><stop stop-opacity="1" stop-color="rgb(95.553589%, 59.83429%, 21.424866%)" offset="0.515625"/><stop stop-opacity="1" stop-color="rgb(95.571899%, 60.115051%, 21.298218%)" offset="0.519531"/><stop stop-opacity="1" stop-color="rgb(95.59021%, 60.395813%, 21.173096%)" offset="0.523438"/><stop stop-opacity="1" stop-color="rgb(95.608521%, 60.676575%, 21.046448%)" offset="0.527344"/><stop stop-opacity="1" stop-color="rgb(95.626831%, 60.957336%, 20.921326%)" offset="0.53125"/><stop stop-opacity="1" stop-color="rgb(95.645142%, 61.238098%, 20.794678%)" offset="0.535156"/><stop stop-opacity="1" stop-color="rgb(95.663452%, 61.51886%, 20.669556%)" offset="0.539062"/><stop stop-opacity="1" stop-color="rgb(95.681763%, 61.799622%, 20.542908%)" offset="0.542969"/><stop stop-opacity="1" stop-color="rgb(95.700073%, 62.080383%, 20.41626%)" offset="0.546875"/><stop stop-opacity="1" stop-color="rgb(95.718384%, 62.361145%, 20.289612%)" offset="0.550781"/><stop stop-opacity="1" stop-color="rgb(95.73822%, 62.641907%, 20.16449%)" offset="0.554688"/><stop stop-opacity="1" stop-color="rgb(95.756531%, 62.922668%, 20.037842%)" offset="0.558594"/><stop stop-opacity="1" stop-color="rgb(95.774841%, 63.20343%, 19.91272%)" offset="0.5625"/><stop stop-opacity="1" stop-color="rgb(95.793152%, 63.484192%, 19.786072%)" offset="0.566406"/><stop stop-opacity="1" stop-color="rgb(95.811462%, 63.764954%, 19.66095%)" offset="0.570312"/><stop stop-opacity="1" stop-color="rgb(95.829773%, 64.045715%, 19.534302%)" offset="0.574219"/><stop stop-opacity="1" stop-color="rgb(95.848083%, 64.328003%, 19.40918%)" offset="0.578125"/><stop stop-opacity="1" stop-color="rgb(95.866394%, 64.608765%, 19.282532%)" offset="0.582031"/><stop stop-opacity="1" stop-color="rgb(95.884705%, 64.889526%, 19.15741%)" offset="0.585938"/><stop stop-opacity="1" stop-color="rgb(95.903015%, 65.170288%, 19.030762%)" offset="0.589844"/><stop stop-opacity="1" stop-color="rgb(95.921326%, 65.45105%, 18.90564%)" offset="0.59375"/><stop stop-opacity="1" stop-color="rgb(95.939636%, 65.731812%, 18.778992%)" offset="0.597656"/><stop stop-opacity="1" stop-color="rgb(95.957947%, 66.012573%, 18.65387%)" offset="0.601562"/><stop stop-opacity="1" stop-color="rgb(95.976257%, 66.293335%, 18.527222%)" offset="0.605469"/><stop stop-opacity="1" stop-color="rgb(95.994568%, 66.574097%, 18.400574%)" offset="0.609375"/><stop stop-opacity="1" stop-color="rgb(96.012878%, 66.854858%, 18.273926%)" offset="0.613281"/><stop stop-opacity="1" stop-color="rgb(96.031189%, 67.13562%, 18.148804%)" offset="0.617188"/><stop stop-opacity="1" stop-color="rgb(96.0495%, 67.416382%, 18.022156%)" offset="0.621094"/><stop stop-opacity="1" stop-color="rgb(96.06781%, 67.697144%, 17.897034%)" offset="0.625"/><stop stop-opacity="1" stop-color="rgb(96.086121%, 67.977905%, 17.770386%)" offset="0.628906"/><stop stop-opacity="1" stop-color="rgb(96.104431%, 68.258667%, 17.645264%)" offset="0.632812"/><stop stop-opacity="1" stop-color="rgb(96.122742%, 68.539429%, 17.518616%)" offset="0.636719"/><stop stop-opacity="1" stop-color="rgb(96.141052%, 68.82019%, 17.393494%)" offset="0.640625"/><stop stop-opacity="1" stop-color="rgb(96.159363%, 69.100952%, 17.266846%)" offset="0.644531"/><stop stop-opacity="1" stop-color="rgb(96.179199%, 69.381714%, 17.141724%)" offset="0.648438"/><stop stop-opacity="1" stop-color="rgb(96.19751%, 69.662476%, 17.015076%)" offset="0.652344"/><stop stop-opacity="1" stop-color="rgb(96.21582%, 69.944763%, 16.889954%)" offset="0.65625"/><stop stop-opacity="1" stop-color="rgb(96.234131%, 70.225525%, 16.763306%)" offset="0.660156"/><stop stop-opacity="1" stop-color="rgb(96.252441%, 70.506287%, 16.638184%)" offset="0.664063"/><stop stop-opacity="1" stop-color="rgb(96.270752%, 70.787048%, 16.511536%)" offset="0.667969"/><stop stop-opacity="1" stop-color="rgb(96.289062%, 71.06781%, 16.384888%)" offset="0.671875"/><stop stop-opacity="1" stop-color="rgb(96.307373%, 71.348572%, 16.25824%)" offset="0.675781"/><stop stop-opacity="1" stop-color="rgb(96.325684%, 71.629333%, 16.133118%)" offset="0.679688"/><stop stop-opacity="1" stop-color="rgb(96.343994%, 71.910095%, 16.00647%)" offset="0.683594"/><stop stop-opacity="1" stop-color="rgb(96.362305%, 72.190857%, 15.881348%)" offset="0.6875"/><stop stop-opacity="1" stop-color="rgb(96.380615%, 72.471619%, 15.7547%)" offset="0.691406"/><stop stop-opacity="1" stop-color="rgb(96.398926%, 72.75238%, 15.629578%)" offset="0.695313"/><stop stop-opacity="1" stop-color="rgb(96.417236%, 73.033142%, 15.50293%)" offset="0.699219"/><stop stop-opacity="1" stop-color="rgb(96.435547%, 73.313904%, 15.377808%)" offset="0.703125"/><stop stop-opacity="1" stop-color="rgb(96.453857%, 73.594666%, 15.25116%)" offset="0.707031"/><stop stop-opacity="1" stop-color="rgb(96.472168%, 73.875427%, 15.126038%)" offset="0.710938"/><stop stop-opacity="1" stop-color="rgb(96.490479%, 74.156189%, 14.99939%)" offset="0.714844"/><stop stop-opacity="1" stop-color="rgb(96.508789%, 74.436951%, 14.874268%)" offset="0.71875"/><stop stop-opacity="1" stop-color="rgb(96.5271%, 74.717712%, 14.74762%)" offset="0.722656"/><stop stop-opacity="1" stop-color="rgb(96.54541%, 74.998474%, 14.622498%)" offset="0.726563"/><stop stop-opacity="1" stop-color="rgb(96.563721%, 75.279236%, 14.49585%)" offset="0.730469"/><stop stop-opacity="1" stop-color="rgb(96.582031%, 75.559998%, 14.369202%)" offset="0.734375"/><stop stop-opacity="1" stop-color="rgb(96.600342%, 75.840759%, 14.242554%)" offset="0.738281"/><stop stop-opacity="1" stop-color="rgb(96.620178%, 76.123047%, 14.117432%)" offset="0.742188"/><stop stop-opacity="1" stop-color="rgb(96.638489%, 76.403809%, 13.990784%)" offset="0.746094"/><stop stop-opacity="1" stop-color="rgb(96.656799%, 76.68457%, 13.865662%)" offset="0.75"/><stop stop-opacity="1" stop-color="rgb(96.67511%, 76.965332%, 13.739014%)" offset="0.753906"/><stop stop-opacity="1" stop-color="rgb(96.69342%, 77.246094%, 13.613892%)" offset="0.757813"/><stop stop-opacity="1" stop-color="rgb(96.711731%, 77.526855%, 13.487244%)" offset="0.761719"/><stop stop-opacity="1" stop-color="rgb(96.730042%, 77.807617%, 13.362122%)" offset="0.765625"/><stop stop-opacity="1" stop-color="rgb(96.748352%, 78.088379%, 13.235474%)" offset="0.769531"/><stop stop-opacity="1" stop-color="rgb(96.766663%, 78.369141%, 13.110352%)" offset="0.773438"/><stop stop-opacity="1" stop-color="rgb(96.784973%, 78.649902%, 12.983704%)" offset="0.777344"/><stop stop-opacity="1" stop-color="rgb(96.803284%, 78.930664%, 12.858582%)" offset="0.78125"/><stop stop-opacity="1" stop-color="rgb(96.821594%, 79.211426%, 12.731934%)" offset="0.785156"/><stop stop-opacity="1" stop-color="rgb(96.839905%, 79.492188%, 12.605286%)" offset="0.789062"/><stop stop-opacity="1" stop-color="rgb(96.858215%, 79.772949%, 12.478638%)" offset="0.792969"/><stop stop-opacity="1" stop-color="rgb(96.876526%, 80.053711%, 12.353516%)" offset="0.796875"/><stop stop-opacity="1" stop-color="rgb(96.887207%, 80.226135%, 12.275696%)" offset="0.8125"/><stop stop-opacity="1" stop-color="rgb(96.899414%, 80.39856%, 12.199402%)" offset="0.875"/><stop stop-opacity="1" stop-color="rgb(96.899414%, 80.39856%, 12.199402%)" offset="1"/></linearGradient><clipPath id="9a51cc85ae"><path d="M 25 75 L 62 75 L 62 88.578125 L 25 88.578125 Z M 25 75 " clip-rule="nonzero"/></clipPath></defs><g clip-path="url(#ca3650be07)"><g clip-path="url(#6eee3d28ad)"><path fill="url(#7ef820b0f3)" d="M 0.78125 82.964844 L 0.78125 26.058594 L 64.035156 26.058594 L 64.035156 82.964844 Z M 0.78125 82.964844 " fill-rule="nonzero"/></g></g><g clip-path="url(#9a51cc85ae)"><path fill="#000f52" d="M 25.476562 80.664062 C 26.867188 82.089844 28.511719 83.179688 30.308594 83.878906 L 28.699219 83.878906 C 27.535156 82.941406 26.449219 81.871094 25.476562 80.664062 Z M 51.585938 75.75 L 47.261719 80.09375 L 45.753906 80.09375 C 46.84375 78.835938 47.714844 77.375 48.296875 75.773438 Z M 57.253906 75.710938 L 52.890625 80.09375 L 48.210938 80.09375 L 52.535156 75.738281 Z M 58.796875 80.09375 L 53.839844 80.09375 L 58.214844 75.699219 L 61.367188 75.671875 C 60.671875 77.261719 59.808594 78.746094 58.796875 80.09375 Z M 49.386719 84.566406 L 54.230469 84.566406 C 51.75 86.355469 48.878906 87.601562 45.792969 88.171875 Z M 50.054688 83.890625 L 53.167969 80.765625 L 58.28125 80.765625 C 57.332031 81.921875 56.28125 82.964844 55.128906 83.890625 Z M 44.425781 83.890625 L 47.539062 80.765625 L 52.21875 80.765625 L 49.109375 83.890625 Z M 43.476562 83.890625 L 40.378906 83.890625 C 42.160156 83.195312 43.78125 82.113281 45.121094 80.765625 L 46.589844 80.765625 Z M 39.898438 88.441406 L 43.757812 84.566406 L 48.4375 84.566406 L 44.667969 88.351562 C 43.058594 88.554688 41.464844 88.578125 39.898438 88.441406 Z M 34 86.992188 L 36.164062 84.820312 C 36.808594 84.78125 37.46875 84.691406 38.113281 84.566406 L 42.808594 84.566406 L 39.050781 88.339844 C 37.316406 88.097656 35.621094 87.640625 34 86.992188 Z M 29.597656 84.566406 L 32.585938 84.566406 C 33.445312 84.742188 34.304688 84.832031 35.191406 84.84375 L 33.332031 86.710938 C 32.027344 86.117188 30.777344 85.402344 29.597656 84.566406 Z M 29.597656 84.566406 " fill-opacity="1" fill-rule="nonzero"/></g><g fill="#ffffff" fill-opacity="1"><g transform="translate(69.385301, 74.616806)"><g><path d="M 5.1875 0 L 5.1875 -1.609375 L 6.78125 -1.875 C 7.164062 -1.9375 7.40625 -2.082031 7.5 -2.3125 C 7.601562 -2.550781 7.65625 -2.867188 7.65625 -3.265625 L 7.65625 -16.6875 L 7 -16.6875 C 6.34375 -16.6875 5.796875 -16.640625 5.359375 -16.546875 C 4.929688 -16.453125 4.570312 -16.265625 4.28125 -15.984375 C 3.988281 -15.703125 3.722656 -15.296875 3.484375 -14.765625 C 3.242188 -14.234375 2.984375 -13.535156 2.703125 -12.671875 L 0.71875 -13.125 L 1.78125 -18.546875 L 17.546875 -18.546875 L 18.609375 -13.203125 L 16.59375 -12.75 C 16.238281 -13.84375 15.921875 -14.671875 15.640625 -15.234375 C 15.359375 -15.796875 15 -16.175781 14.5625 -16.375 C 14.125 -16.582031 13.492188 -16.6875 12.671875 -16.6875 L 11.578125 -16.6875 L 11.578125 -3.15625 C 11.578125 -2.75 11.628906 -2.453125 11.734375 -2.265625 C 11.847656 -2.078125 12.097656 -1.945312 12.484375 -1.875 L 14.046875 -1.609375 L 14.046875 0 Z M 5.1875 0 "/></g></g></g><g fill="#ffffff" fill-opacity="1"><g transform="translate(88.702229, 74.616806)"><g><path d="M 1.328125 0 L 1.328125 -1.59375 L 2.734375 -1.859375 C 3.117188 -1.929688 3.347656 -2.050781 3.421875 -2.21875 C 3.503906 -2.382812 3.546875 -2.710938 3.546875 -3.203125 L 3.546875 -15.453125 C 3.546875 -15.859375 3.507812 -16.148438 3.4375 -16.328125 C 3.375 -16.503906 3.128906 -16.625 2.703125 -16.6875 L 1.328125 -16.953125 L 1.328125 -18.546875 L 10.0625 -18.546875 L 10.0625 -16.9375 L 8.34375 -16.6875 C 7.957031 -16.625 7.710938 -16.515625 7.609375 -16.359375 C 7.515625 -16.210938 7.46875 -15.9375 7.46875 -15.53125 L 7.46875 -1.859375 L 9.78125 -1.859375 C 10.539062 -1.859375 11.15625 -1.976562 11.625 -2.21875 C 12.101562 -2.46875 12.519531 -2.894531 12.875 -3.5 C 13.226562 -4.113281 13.566406 -4.953125 13.890625 -6.015625 L 15.90625 -6.015625 L 15.15625 0 Z M 1.328125 0 "/></g></g></g><g fill="#ffffff" fill-opacity="1"><g transform="translate(105.395869, 74.616806)"><g/></g></g><g fill="#ffffff" fill-opacity="1"><g transform="translate(110.165486, 74.616806)"><g><path d="M 0.828125 -6.171875 L 0.828125 -8.71875 L 8.6875 -8.71875 L 8.6875 -6.171875 Z M 0.828125 -6.171875 "/></g></g></g><g fill="#ffffff" fill-opacity="1"><g transform="translate(119.651715, 74.616806)"><g/></g></g><g fill="#ffffff" fill-opacity="1"><g transform="translate(124.421331, 74.616806)"><g><path d="M 1.328125 0 L 1.328125 -1.59375 L 2.734375 -1.859375 C 3.117188 -1.929688 3.347656 -2.050781 3.421875 -2.21875 C 3.503906 -2.382812 3.546875 -2.710938 3.546875 -3.203125 L 3.546875 -15.453125 C 3.546875 -15.859375 3.507812 -16.148438 3.4375 -16.328125 C 3.375 -16.503906 3.128906 -16.625 2.703125 -16.6875 L 1.328125 -16.953125 L 1.328125 -18.546875 L 10.0625 -18.546875 L 10.0625 -16.9375 L 8.34375 -16.6875 C 7.957031 -16.625 7.710938 -16.515625 7.609375 -16.359375 C 7.515625 -16.210938 7.46875 -15.9375 7.46875 -15.53125 L 7.46875 -1.859375 L 9.78125 -1.859375 C 10.539062 -1.859375 11.15625 -1.976562 11.625 -2.21875 C 12.101562 -2.46875 12.519531 -2.894531 12.875 -3.5 C 13.226562 -4.113281 13.566406 -4.953125 13.890625 -6.015625 L 15.90625 -6.015625 L 15.15625 0 Z M 1.328125 0 "/></g></g></g><g fill="#ffffff" fill-opacity="1"><g transform="translate(141.114972, 74.616806)"><g><path d="M 1.328125 0 L 1.328125 -1.59375 L 2.671875 -1.828125 C 3.128906 -1.921875 3.40625 -2.035156 3.5 -2.171875 C 3.601562 -2.316406 3.65625 -2.660156 3.65625 -3.203125 L 3.65625 -15.34375 C 3.65625 -15.894531 3.601562 -16.242188 3.5 -16.390625 C 3.40625 -16.535156 3.128906 -16.644531 2.671875 -16.71875 L 1.328125 -16.953125 L 1.328125 -18.546875 L 9.9375 -18.546875 L 9.9375 -16.953125 L 8.421875 -16.6875 C 8.035156 -16.625 7.796875 -16.507812 7.703125 -16.34375 C 7.617188 -16.1875 7.578125 -15.863281 7.578125 -15.375 L 7.578125 -3.09375 C 7.578125 -2.65625 7.617188 -2.359375 7.703125 -2.203125 C 7.796875 -2.046875 8.035156 -1.929688 8.421875 -1.859375 L 9.9375 -1.59375 L 9.9375 0 Z M 1.328125 0 "/></g></g></g><g fill="#ffffff" fill-opacity="1"><g transform="translate(152.376557, 74.616806)"><g><path d="M 10.15625 0.375 C 8.507812 0.375 7.109375 0.117188 5.953125 -0.390625 C 4.804688 -0.910156 3.882812 -1.609375 3.1875 -2.484375 C 2.488281 -3.367188 1.976562 -4.359375 1.65625 -5.453125 C 1.332031 -6.554688 1.171875 -7.6875 1.171875 -8.84375 C 1.171875 -10.894531 1.519531 -12.675781 2.21875 -14.1875 C 2.914062 -15.695312 3.914062 -16.863281 5.21875 -17.6875 C 6.53125 -18.507812 8.078125 -18.921875 9.859375 -18.921875 C 11.003906 -18.921875 11.960938 -18.734375 12.734375 -18.359375 C 13.515625 -17.992188 14.09375 -17.625 14.46875 -17.25 L 14.734375 -18.921875 L 16.34375 -18.921875 L 17.65625 -12.75 L 15.609375 -12.296875 C 15.109375 -13.765625 14.4375 -14.851562 13.59375 -15.5625 C 12.757812 -16.28125 11.679688 -16.640625 10.359375 -16.640625 C 9.335938 -16.640625 8.5 -16.425781 7.84375 -16 C 7.1875 -15.582031 6.671875 -15.007812 6.296875 -14.28125 C 5.929688 -13.5625 5.671875 -12.765625 5.515625 -11.890625 C 5.367188 -11.015625 5.296875 -10.125 5.296875 -9.21875 C 5.296875 -7.519531 5.535156 -6.128906 6.015625 -5.046875 C 6.503906 -3.972656 7.148438 -3.179688 7.953125 -2.671875 C 8.765625 -2.160156 9.640625 -1.90625 10.578125 -1.90625 C 11.398438 -1.90625 12.054688 -2.019531 12.546875 -2.25 C 13.035156 -2.476562 13.4375 -2.734375 13.75 -3.015625 L 13.75 -5.890625 C 13.75 -6.296875 13.703125 -6.597656 13.609375 -6.796875 C 13.523438 -7.003906 13.28125 -7.140625 12.875 -7.203125 L 11.546875 -7.453125 L 11.546875 -9.03125 L 19.15625 -9.03125 L 19.15625 -7.453125 L 18.015625 -7.203125 C 17.648438 -7.140625 17.425781 -6.988281 17.34375 -6.75 C 17.257812 -6.507812 17.21875 -6.1875 17.21875 -5.78125 L 17.21875 0.078125 L 15.265625 0.078125 L 14.765625 -1.03125 C 14.265625 -0.644531 13.617188 -0.3125 12.828125 -0.03125 C 12.035156 0.238281 11.144531 0.375 10.15625 0.375 Z M 10.15625 0.375 "/></g></g></g><g fill="#ffffff" fill-opacity="1"><g transform="translate(172.329433, 74.616806)"><g><path d="M 1.328125 0 L 1.328125 -1.59375 L 2.578125 -1.828125 C 3.035156 -1.921875 3.3125 -2.035156 3.40625 -2.171875 C 3.5 -2.316406 3.546875 -2.660156 3.546875 -3.203125 L 3.546875 -15.34375 C 3.546875 -15.894531 3.5 -16.242188 3.40625 -16.390625 C 3.3125 -16.535156 3.035156 -16.644531 2.578125 -16.71875 L 1.328125 -16.953125 L 1.328125 -18.546875 L 9.703125 -18.546875 L 9.703125 -16.953125 L 8.328125 -16.6875 C 7.929688 -16.625 7.6875 -16.507812 7.59375 -16.34375 C 7.507812 -16.1875 7.46875 -15.863281 7.46875 -15.375 L 7.46875 -10.578125 L 14.625 -10.578125 L 14.625 -15.375 C 14.625 -15.863281 14.578125 -16.1875 14.484375 -16.34375 C 14.398438 -16.507812 14.164062 -16.625 13.78125 -16.6875 L 12.40625 -16.953125 L 12.40625 -18.546875 L 20.78125 -18.546875 L 20.78125 -16.953125 L 19.53125 -16.71875 C 19.070312 -16.644531 18.789062 -16.535156 18.6875 -16.390625 C 18.59375 -16.242188 18.546875 -15.894531 18.546875 -15.34375 L 18.546875 -3.203125 C 18.546875 -2.660156 18.59375 -2.316406 18.6875 -2.171875 C 18.789062 -2.035156 19.070312 -1.921875 19.53125 -1.828125 L 20.78125 -1.59375 L 20.78125 0 L 12.40625 0 L 12.40625 -1.59375 L 13.78125 -1.859375 C 14.164062 -1.929688 14.398438 -2.046875 14.484375 -2.203125 C 14.578125 -2.359375 14.625 -2.65625 14.625 -3.09375 L 14.625 -8.453125 L 7.46875 -8.453125 L 7.46875 -3.09375 C 7.46875 -2.65625 7.507812 -2.359375 7.59375 -2.203125 C 7.6875 -2.046875 7.929688 -1.929688 8.328125 -1.859375 L 9.703125 -1.59375 L 9.703125 0 Z M 1.328125 0 "/></g></g></g><g fill="#ffffff" fill-opacity="1"><g transform="translate(194.428627, 74.616806)"><g><path d="M 5.1875 0 L 5.1875 -1.609375 L 6.78125 -1.875 C 7.164062 -1.9375 7.40625 -2.082031 7.5 -2.3125 C 7.601562 -2.550781 7.65625 -2.867188 7.65625 -3.265625 L 7.65625 -16.6875 L 7 -16.6875 C 6.34375 -16.6875 5.796875 -16.640625 5.359375 -16.546875 C 4.929688 -16.453125 4.570312 -16.265625 4.28125 -15.984375 C 3.988281 -15.703125 3.722656 -15.296875 3.484375 -14.765625 C 3.242188 -14.234375 2.984375 -13.535156 2.703125 -12.671875 L 0.71875 -13.125 L 1.78125 -18.546875 L 17.546875 -18.546875 L 18.609375 -13.203125 L 16.59375 -12.75 C 16.238281 -13.84375 15.921875 -14.671875 15.640625 -15.234375 C 15.359375 -15.796875 15 -16.175781 14.5625 -16.375 C 14.125 -16.582031 13.492188 -16.6875 12.671875 -16.6875 L 11.578125 -16.6875 L 11.578125 -3.15625 C 11.578125 -2.75 11.628906 -2.453125 11.734375 -2.265625 C 11.847656 -2.078125 12.097656 -1.945312 12.484375 -1.875 L 14.046875 -1.609375 L 14.046875 0 Z M 5.1875 0 "/></g></g></g></svg>